<svg width="48" height="48" viewBox="0 0 48 48" fill="none" xmlns="http://www.w3.org/2000/svg">
<circle cx="24" cy="24" r="24" fill="#344966"/>
<path d="M13.1667 21.0284C13.1667 19.0797 14.7464 17.5 16.695 17.5V17.5C17.8747 17.5 18.9764 16.9104 19.6308 15.9288L19.6667 15.875C20.3435 14.8598 21.4829 14.25 22.703 14.25H25.297C26.5171 14.25 27.6565 14.8598 28.3333 15.875L28.3692 15.9288C29.0236 16.9104 30.1253 17.5 31.305 17.5V17.5C33.2536 17.5 34.8333 19.0797 34.8333 21.0284V29.75C34.8333 31.9591 33.0425 33.75 30.8333 33.75H17.1667C14.9575 33.75 13.1667 31.9591 13.1667 29.75V21.0284Z" stroke="#F0F4EF" stroke-width="2" stroke-linecap="round" stroke-linejoin="round"/>
<ellipse cx="24" cy="25.0833" rx="4.33333" ry="4.33333" stroke="#F0F4EF" stroke-width="2" stroke-linecap="round" stroke-linejoin="round"/>
</svg>
