<svg width="56" height="54" viewBox="0 0 56 54" fill="none" xmlns="http://www.w3.org/2000/svg">
<circle cx="24" cy="30" r="24" fill="#344966"/>
<path d="M11.0835 19.1667H13.8125C14.7499 19.1667 15.5615 19.8177 15.7649 20.7328L16.5002 24.0417M16.5002 24.0417L17.7711 31.0316C18.2898 33.8846 20.7746 35.9583 23.6743 35.9583H27.4191C30.2205 35.9583 32.6491 34.0198 33.2699 31.2881L34.5004 25.8741C34.7137 24.9355 34.0002 24.0417 33.0377 24.0417H16.5002Z" stroke="#F0F4EF" stroke-width="2" stroke-linecap="round"/>
<ellipse cx="19.2083" cy="39.75" rx="1.08333" ry="1.08333" stroke="#F0F4EF" stroke-width="2"/>
<ellipse cx="32.2083" cy="39.75" rx="1.08333" ry="1.08333" stroke="#F0F4EF" stroke-width="2"/>
<circle cx="44.5" cy="11.5" r="11.5" fill="#BFCC94"/>
<path d="M42.324 9.148V7.24H45.648V16H43.512V9.148H42.324Z" fill="#344966"/>
</svg>
