<svg width="89" height="46" viewBox="0 0 89 46" fill="none" xmlns="http://www.w3.org/2000/svg">
<path d="M68.6829 44.9996C68.6829 45.5519 69.1306 45.9996 69.6829 45.9996H73.2033H75.6288H77.8655H82.2872H86.5707C87.123 45.9996 87.5707 45.5518 87.5707 44.9996V25.2773C87.5707 24.7251 87.123 24.2773 86.5707 24.2773H86.2896C85.9994 24.2773 85.7236 24.4034 85.5336 24.6227L78.9666 32.2055C78.5714 32.6619 77.865 32.6666 77.4636 32.2156L70.6983 24.6126C70.5085 24.3993 70.2367 24.2773 69.9512 24.2773H69.6829C69.1306 24.2773 68.6829 24.7251 68.6829 25.2773V44.9996Z" fill="#F0F4EF"/>
<path d="M3 24.2109C1.34315 24.2109 0 25.5541 0 27.2109V43.0004C0 44.6573 1.34315 46.0004 3 46.0004H5.33625H7.16701H11.1718H11.96C14.2779 46.0004 15.7202 43.4838 14.5485 41.4839L14.0783 40.6813C13.0927 38.999 14.0736 36.8632 15.3895 35.4246C16.4932 34.2179 17.0073 32.6709 17.0073 31.0706C17.0073 27.2838 14.3236 24.2109 8.95616 24.2109H3Z" fill="#F0F4EF"/>
<path d="M81.762 21.7895H82.1406C84.6643 21.7895 86.0602 18.8632 84.4723 16.9018L80.9643 12.5687C80.0719 11.4664 80.0734 9.88972 80.9678 8.78905L84.1348 4.89199C85.728 2.93149 84.3328 0 81.8066 0H81.6982H76.7535H74.2334H71.7783C70.1215 0 68.7783 1.34315 68.7783 3V18.7895C68.7783 20.4463 70.1215 21.7895 71.7783 21.7895H74.2334H76.7535H81.762Z" fill="#F0F4EF"/>
<path d="M17.1946 15.861C17.1946 14.7306 16.8573 13.6516 16.2523 12.7617C15.6687 11.9033 15.5867 9.1553 16.083 8.24356C16.4775 7.51871 16.7033 6.65106 16.7033 5.64912C16.7033 2.20378 14.0934 0 9.70266 0H0.999999C0.447714 0 0 0.447715 0 1V20.7895C0 21.3418 0.447715 21.7895 1 21.7895H10.0404C14.5847 21.7895 17.1946 19.4615 17.1946 15.861Z" fill="#F0F4EF"/>
<path d="M41.7583 10.8796C41.7583 4.48518 36.8762 0 30.7353 0C24.6251 0 19.6509 4.48518 19.6509 10.8796C19.6509 17.274 24.6251 21.7895 30.7353 21.7895C36.8455 21.7895 41.7583 17.274 41.7583 10.8796Z" fill="#BFCC94"/>
<path d="M41.7583 35.0905C41.7583 28.6961 36.8762 24.2109 30.7353 24.2109C24.6251 24.2109 19.6509 28.6961 19.6509 35.0905C19.6509 41.4849 24.6251 46.0004 30.7353 46.0004C36.8455 46.0004 41.7583 41.4849 41.7583 35.0905Z" fill="#344966"/>
<path d="M66.322 10.8796C66.322 4.48518 61.4399 0 55.299 0C49.1888 0 44.2147 4.48518 44.2147 10.8796C44.2147 17.274 49.1888 21.7895 55.299 21.7895C61.4092 21.7895 66.322 17.274 66.322 10.8796Z" fill="#344966"/>
<path d="M66.322 35.0905C66.322 28.6961 61.4399 24.2109 55.299 24.2109C49.1888 24.2109 44.2147 28.6961 44.2147 35.0905C44.2147 41.4849 49.1888 46.0004 55.299 46.0004C61.4092 46.0004 66.322 41.4849 66.322 35.0905Z" fill="#BFCC94"/>
</svg>
